<svg xmlns="http://www.w3.org/2000/svg" width="1200" height="620" viewBox="0 0 1200 620" fill="none">
<defs>
<linearGradient id="bg" x1="0" y1="0" x2="1200" y2="620" gradientUnits="userSpaceOnUse">
<stop stop-color="#F7FAFF"/>
<stop offset="1" stop-color="#EAF0F8"/>
</linearGradient>
<linearGradient id="acc" x1="220" y1="100" x2="930" y2="520" gradientUnits="userSpaceOnUse">
<stop stop-color="#ff6a2f" stop-opacity="0.22"/>
<stop offset="1" stop-color="#253a56" stop-opacity="0.1"/>
</linearGradient>
</defs>
<rect width="1200" height="620" rx="32" fill="url(#bg)"/>
<circle cx="1020" cy="80" r="180" fill="#ff6a2f" fill-opacity="0.08"/>
<circle cx="150" cy="540" r="180" fill="#253a56" fill-opacity="0.06"/>
<rect x="90" y="86" width="1020" height="448" rx="30" fill="white" stroke="#D7E2EF" stroke-width="2"/>
<rect x="122" y="122" width="420" height="24" rx="12" fill="#ff6a2f" fill-opacity="0.16"/>
<rect x="122" y="176" width="420" height="76" rx="22" fill="#253a56" fill-opacity="0.06"/>
<rect x="122" y="280" width="470" height="18" rx="9" fill="#D9E4F1"/>
<rect x="122" y="314" width="390" height="18" rx="9" fill="#D9E4F1"/>
<rect x="122" y="348" width="300" height="18" rx="9" fill="#D9E4F1"/>
<rect x="122" y="400" width="220" height="64" rx="22" fill="#ff6a2f"/>
<rect x="610" y="146" width="420" height="250" rx="28" fill="url(#acc)"/>
<rect x="650" y="190" width="120" height="110" rx="22" fill="white" fill-opacity="0.92"/>
<rect x="790" y="164" width="190" height="24" rx="12" fill="white" fill-opacity="0.9"/>
<rect x="790" y="208" width="160" height="18" rx="9" fill="white" fill-opacity="0.75"/>
<rect x="790" y="238" width="180" height="18" rx="9" fill="white" fill-opacity="0.75"/>
<rect x="790" y="280" width="130" height="48" rx="16" fill="#ff6a2f" fill-opacity="0.92"/>
<rect x="646" y="430" width="384" height="56" rx="18" fill="#FFFFFF" stroke="#D7E2EF" stroke-width="2"/>
<circle cx="714" cy="458" r="18" fill="#ff6a2f" fill-opacity="0.18"/>
<rect x="752" y="445" width="150" height="16" rx="8" fill="#D7E2EF"/>
<rect x="752" y="470" width="210" height="10" rx="5" fill="#E5ECF4"/>
<text x="122" y="238" fill="#253a56" font-family="Arial, sans-serif" font-size="44" font-weight="700">Базы данных</text>
<text x="122" y="385" fill="#5C7088" font-family="Arial, sans-serif" font-size="24">Таблицы, связи, SQL и проектирование структуры</text>
</svg>